<?xml version="1.0" encoding="UTF-8"?>
<svg width="21px" height="20px" viewBox="0 0 21 20" version="1.1" xmlns="http://www.w3.org/2000/svg" xmlns:xlink="http://www.w3.org/1999/xlink">
    <g id="11.6-11.10" stroke="none" stroke-width="1" fill="none" fill-rule="evenodd">
        <g id="KJ" transform="translate(-1400.000000, -66.000000)">
            <g id="编组-2" transform="translate(1400.035621, 66.008688)">
                <rect id="矩形" x="0" y="0" width="19.9826238" height="19.9826238"></rect>
                <g id="编组" transform="translate(2.964379, 2.991312)" fill="#272536" fill-rule="nonzero">
                    <path d="M7.98928216,6.97085104 L13.7932829,1.19694966 C14.0677407,0.923901213 14.0691299,0.481430672 13.7960814,0.2069729 C13.5223283,-0.0681694177 13.0805625,-0.0688740707 12.8061047,0.204174356 L7.0006946,5.97878041 L1.24569842,0.206288354 C0.973354644,-0.066760092 0.53017943,-0.0681694177 0.255721658,0.204879029 C-0.0180314413,0.477927475 -0.0187159867,0.921102689 0.254312332,1.19556046 L6.00793944,6.9666633 L0.206717099,12.7370615 C-0.0677406728,13.01011 -0.0691298711,13.4525805 0.203918556,13.7270383 C0.340442769,13.8642672 0.520374493,13.9335661 0.700306197,13.9335661 C0.878828576,13.9335661 1.05737108,13.8656564 1.19389531,13.7298368 L6.99650686,7.95802928 L12.8040108,13.7830492 C12.940535,13.9202781 13.1197621,13.9888926 13.2996938,13.9888926 C13.4789209,13.9888926 13.6574634,13.9202781 13.7939876,13.7844586 C14.0677407,13.5114101 14.0684453,13.0689396 13.7953969,12.7944818 L7.98928216,6.97085104 Z" id="路径"></path>
                </g>
            </g>
        </g>
    </g>
</svg>