<svg width="66" height="66" viewBox="0 0 66 66" fill="none" xmlns="http://www.w3.org/2000/svg">
<rect width="66" height="66" rx="8" fill="#F0F0F0"/>
<path d="M48.3022 17.6484L34.875 27.5884L37.3702 21.7287L48.3022 17.6484Z" fill="#E17726" stroke="#E17726" stroke-width="0.25" stroke-linecap="round" stroke-linejoin="round"/>
<path d="M17.3271 17.6484L30.6418 27.6805L28.2591 21.7287L17.3271 17.6484Z" fill="#E27625" stroke="#E27625" stroke-width="0.25" stroke-linecap="round" stroke-linejoin="round"/>
<path d="M43.4655 40.6982L39.8965 46.1591L47.5458 48.2657L49.7342 40.821L43.4655 40.6982Z" fill="#E27625" stroke="#E27625" stroke-width="0.25" stroke-linecap="round" stroke-linejoin="round"/>
<path d="M15.9053 40.821L18.0835 48.2657L25.7226 46.1591L22.1638 40.6982L15.9053 40.821Z" fill="#E27625" stroke="#E27625" stroke-width="0.25" stroke-linecap="round" stroke-linejoin="round"/>
<path d="M25.3126 31.4744L23.1855 34.6855L30.753 35.0332L30.4974 26.8828L25.3024 31.4847L25.3126 31.4744Z" fill="#E27625" stroke="#E27625" stroke-width="0.25" stroke-linecap="round" stroke-linejoin="round"/>
<path d="M40.3256 31.4742L35.0488 26.7803L34.875 35.0227L42.4425 34.675L40.3154 31.4639L40.3256 31.4742Z" fill="#E27625" stroke="#E27625" stroke-width="0.25" stroke-linecap="round" stroke-linejoin="round"/>
<path d="M25.7227 46.1591L30.3041 43.9502L26.3567 40.8721L25.7227 46.1591Z" fill="#E27625" stroke="#E27625" stroke-width="0.25" stroke-linecap="round" stroke-linejoin="round"/>
<path d="M35.3252 43.9404L39.8964 46.1493L39.2726 40.8623L35.3252 43.9404Z" fill="#E27625" stroke="#E27625" stroke-width="0.25" stroke-linecap="round" stroke-linejoin="round"/>
<path d="M39.8964 46.1591L35.3252 43.9502L35.6933 46.9158L35.6524 48.1737L39.8861 46.1591H39.8964Z" fill="#D5BFB2" stroke="#D5BFB2" stroke-width="0.25" stroke-linecap="round" stroke-linejoin="round"/>
<path d="M25.7227 46.1591L29.9768 48.1737L29.9461 46.9158L30.3041 43.9502L25.7227 46.1591Z" fill="#D5BFB2" stroke="#D5BFB2" stroke-width="0.25" stroke-linecap="round" stroke-linejoin="round"/>
<path d="M30.0483 38.9097L26.2441 37.795L28.9234 36.5576L30.0381 38.8994L30.0483 38.9097Z" fill="#233447" stroke="#233447" stroke-width="0.25" stroke-linecap="round" stroke-linejoin="round"/>
<path d="M35.5801 38.9092L36.6947 36.5674L39.3945 37.8048L35.5801 38.9194V38.9092Z" fill="#233447" stroke="#233447" stroke-width="0.25" stroke-linecap="round" stroke-linejoin="round"/>
<path d="M25.7219 46.1591L26.3866 40.6982L22.1631 40.821L25.7219 46.1591Z" fill="#CC6228" stroke="#CC6228" stroke-width="0.25" stroke-linecap="round" stroke-linejoin="round"/>
<path d="M39.2412 40.6982L39.8957 46.1591L43.4647 40.821L39.2412 40.6982Z" fill="#CC6228" stroke="#CC6228" stroke-width="0.25" stroke-linecap="round" stroke-linejoin="round"/>
<path d="M42.4425 34.6855L34.875 35.0332L35.5806 38.9192L36.6953 36.5774L39.395 37.8148L42.4527 34.6958L42.4425 34.6855Z" fill="#CC6228" stroke="#CC6228" stroke-width="0.25" stroke-linecap="round" stroke-linejoin="round"/>
<path d="M26.2534 37.7943L28.9327 36.5569L30.0474 38.8987L30.753 35.0127L23.1855 34.665L26.2534 37.7841V37.7943Z" fill="#CC6228" stroke="#CC6228" stroke-width="0.25" stroke-linecap="round" stroke-linejoin="round"/>
<path d="M23.1855 34.685L26.3557 40.872L26.2534 37.7938L23.1855 34.6748V34.685Z" fill="#E27525" stroke="#E27525" stroke-width="0.25" stroke-linecap="round" stroke-linejoin="round"/>
<path d="M39.3952 37.7944L39.2725 40.8725L42.4426 34.6855L39.385 37.8046L39.3952 37.7944Z" fill="#E27525" stroke="#E27525" stroke-width="0.25" stroke-linecap="round" stroke-linejoin="round"/>
<path d="M30.7544 35.0234L30.0488 38.9094L30.9385 43.4908L31.1328 37.4471L30.7442 35.0234H30.7544Z" fill="#E27525" stroke="#E27525" stroke-width="0.25" stroke-linecap="round" stroke-linejoin="round"/>
<path d="M34.875 35.0234L34.5068 37.4369L34.6909 43.4908L35.5806 38.9094L34.875 35.0234Z" fill="#E27525" stroke="#E27525" stroke-width="0.25" stroke-linecap="round" stroke-linejoin="round"/>
<path d="M35.5801 38.9081L34.6904 43.4895L35.3245 43.9395L39.2718 40.8613L39.3945 37.7832L35.5801 38.8979V38.9081Z" fill="#F5841F" stroke="#F5841F" stroke-width="0.25" stroke-linecap="round" stroke-linejoin="round"/>
<path d="M26.2544 37.7949L26.3566 40.873L30.304 43.9512L30.938 43.5012L30.0483 38.9198L26.2441 37.8051L26.2544 37.7949Z" fill="#F5841F" stroke="#F5841F" stroke-width="0.25" stroke-linecap="round" stroke-linejoin="round"/>
<path d="M35.6622 48.1738L35.7031 46.9159L35.3554 46.6194H30.2831L29.9559 46.9159L29.9866 48.1738L25.7324 46.1592L27.2255 47.3761L30.2422 49.4521H35.4065L38.4335 47.3761L39.9061 46.1592L35.6724 48.1738H35.6622Z" fill="#C0AC9D" stroke="#C0AC9D" stroke-width="0.25" stroke-linecap="round" stroke-linejoin="round"/>
<path d="M35.3249 43.9402L34.6908 43.4902H30.948L30.314 43.9402L29.9561 46.9058L30.2833 46.6093H35.3556L35.7033 46.9058L35.3351 43.9402H35.3249Z" fill="#161616" stroke="#161616" stroke-width="0.25" stroke-linecap="round" stroke-linejoin="round"/>
<path d="M48.8751 28.2429L50 22.7616L48.3024 17.6484L35.3252 27.251L40.3156 31.4642L47.3718 33.5197L48.9262 31.6994L48.2513 31.2086L49.3251 30.2268L48.4967 29.5928L49.5705 28.7747L48.8649 28.2327L48.8751 28.2429Z" fill="#763E1A" stroke="#763E1A" stroke-width="0.25" stroke-linecap="round" stroke-linejoin="round"/>
<path d="M15.6191 22.7514L16.7645 28.2327L16.0384 28.7747L17.1326 29.5928L16.3043 30.2268L17.3781 31.2086L16.7031 31.6994L18.2575 33.5197L25.3137 31.4642L30.3042 27.251L17.3269 17.6484L15.6191 22.7514Z" fill="#763E1A" stroke="#763E1A" stroke-width="0.25" stroke-linecap="round" stroke-linejoin="round"/>
<path d="M47.3717 33.5291L40.3155 31.4736L42.4426 34.6847L39.2725 40.8716L43.4755 40.8205H49.7442L47.3819 33.5291H47.3717Z" fill="#F5841F" stroke="#F5841F" stroke-width="0.25" stroke-linecap="round" stroke-linejoin="round"/>
<path d="M25.3135 31.4736L18.2573 33.5291L15.9053 40.8205H22.1638L26.3668 40.8716L23.1967 34.6847L25.3237 31.4736H25.3135Z" fill="#F5841F" stroke="#F5841F" stroke-width="0.25" stroke-linecap="round" stroke-linejoin="round"/>
<path d="M34.8752 35.0233L35.3252 27.2615L37.3705 21.7393H28.2588L30.3041 27.2615L30.754 35.0233L30.9279 37.4571V43.4907H34.6912V37.4571L34.8752 35.0233Z" fill="#F5841F" stroke="#F5841F" stroke-width="0.25" stroke-linecap="round" stroke-linejoin="round"/>
</svg>
