<svg width="66" height="66" viewBox="0 0 66 66" fill="none" xmlns="http://www.w3.org/2000/svg">
<rect width="66" height="66" rx="8" fill="#1D2028"/>
<path d="M37.6418 27.6426H28.3913C27.9987 27.6426 27.6768 27.9645 27.6768 28.3571V37.6076C27.6768 38.0003 27.9987 38.3222 28.3913 38.3222H37.6418C38.0345 38.3222 38.3564 38.0003 38.3564 37.6076V28.3571C38.3564 27.9645 38.0345 27.6426 37.6418 27.6426Z" fill="white"/>
<path d="M26.965 17H17.7146C17.3219 17 17 17.3219 17 17.7146V26.965C17 27.3577 17.3219 27.6796 17.7146 27.6796H26.965C27.3577 27.6796 27.6796 27.3577 27.6796 26.965V17.7146C27.6773 17.3219 27.3577 17 26.965 17Z" fill="white"/>
<path d="M48.2854 17H39.0349C38.6422 17 38.3203 17.3219 38.3203 17.7146V26.965C38.3203 27.3577 38.6422 27.6796 39.0349 27.6796H48.2854C48.678 27.6796 48.9999 27.3577 48.9999 26.965V17.7146C48.9999 17.3219 48.678 17 48.2854 17Z" fill="white"/>
<path d="M26.965 38.2861H17.7146C17.3219 38.2861 17 38.608 17 39.0007V48.2512C17 48.6438 17.3219 48.9657 17.7146 48.9657H26.965C27.3577 48.9657 27.6796 48.6438 27.6796 48.2512V39.0007C27.6773 38.608 27.3577 38.2861 26.965 38.2861Z" fill="white"/>
<path d="M48.2854 38.2861H39.0349C38.6422 38.2861 38.3203 38.608 38.3203 39.0007V48.2512C38.3203 48.6438 38.6422 48.9657 39.0349 48.9657H48.2854C48.678 48.9657 48.9999 48.6438 48.9999 48.2512V39.0007C48.9999 38.608 48.678 38.2861 48.2854 38.2861Z" fill="white"/>
</svg>
