<svg width="66" height="66" viewBox="0 0 66 66" fill="none" xmlns="http://www.w3.org/2000/svg">
<rect width="66" height="66" rx="8" fill="#00D937"/>
<path fill-rule="evenodd" clip-rule="evenodd" d="M27.0972 15H35.8472V29.375H30.4306V19.5833H25.5694L27.0972 15ZM33 51.25C38.4861 51.25 43 46.8056 43 41.25C43 35.7639 38.5556 31.25 33 31.25C27.4444 31.25 23 35.6944 23 41.25C23.0694 46.7361 27.5139 51.25 33 51.25ZM33 46.7361C35.9861 46.7361 38.4167 44.3056 38.4167 41.3194C38.4167 38.3333 35.9861 35.9028 33 35.9028C30.0139 35.9028 27.5833 38.3333 27.5833 41.3194C27.5833 44.3056 30.0139 46.7361 33 46.7361Z" fill="black"/>
</svg>
